<?xml version="1.0" standalone="no"?>
<!DOCTYPE svg PUBLIC "-//W3C//DTD SVG 20010904//EN"
 "http://www.w3.org/TR/2001/REC-SVG-20010904/DTD/svg10.dtd">
<svg version="1.0" xmlns="http://www.w3.org/2000/svg"
 width="120.000000pt" height="120.000000pt" viewBox="0 0 120.000000 120.000000"
 preserveAspectRatio="xMidYMid meet">
<metadata>
Created by potrace 1.14, written by Peter Selinger 2001-2017
</metadata>
<g transform="translate(0.000000,120.000000) scale(0.100000,-0.100000)"
fill="#000000" stroke="none">
<path d="M521 1119 c-1 -12 -9 -16 -31 -14 -16 1 -28 -1 -25 -5 3 -4 -2 -11
-11 -14 -8 -3 -13 -2 -10 2 3 5 -1 9 -9 9 -8 0 -13 -5 -12 -11 1 -6 -6 -10
-15 -8 -10 2 -18 -1 -18 -6 0 -6 -12 -13 -26 -16 -15 -4 -33 -14 -41 -22 -8
-8 -19 -11 -25 -8 -6 4 -9 3 -6 -2 3 -5 0 -14 -7 -21 -11 -10 -15 -10 -18 0
-3 7 -6 5 -6 -5 -1 -9 -6 -20 -13 -24 -7 -5 -9 -2 -4 7 4 8 0 4 -9 -8 -9 -12
-25 -32 -36 -44 -10 -12 -19 -26 -19 -31 0 -4 -3 -7 -7 -6 -5 2 -10 -1 -12 -7
-2 -5 -11 -16 -20 -23 -9 -8 -11 -11 -4 -8 7 4 6 -4 -3 -24 -9 -16 -20 -30
-25 -30 -6 0 -7 -4 -4 -10 3 -5 3 -16 -2 -22 -16 -25 -31 -78 -20 -71 6 4 7 1
1 -8 -13 -21 -15 -36 -16 -131 -1 -61 3 -92 13 -105 12 -15 12 -16 -1 -8 -13
8 -13 7 -1 -8 7 -9 11 -17 7 -17 -4 0 0 -13 8 -29 9 -16 12 -31 9 -35 -4 -3
-1 -6 5 -6 7 0 11 -3 10 -8 -2 -11 14 -45 29 -60 7 -8 10 -18 7 -24 -4 -7 -2
-8 4 -4 7 4 12 2 12 -5 0 -6 13 -24 29 -40 16 -15 27 -30 23 -33 -3 -3 -1 -6
4 -6 6 0 20 -9 32 -20 12 -12 22 -19 22 -16 0 3 11 -6 25 -20 14 -14 30 -22
35 -19 6 3 10 1 10 -4 0 -6 7 -11 16 -11 8 0 13 -4 10 -8 -3 -5 0 -9 7 -10 41
-5 77 -15 77 -21 0 -4 6 -8 13 -8 34 -1 110 -14 119 -19 6 -4 8 -3 5 2 -3 6
18 9 54 8 32 -1 59 2 59 6 0 5 9 7 20 5 11 -2 22 1 25 6 4 5 11 7 16 4 5 -4 9
-2 9 3 0 5 7 9 15 10 8 1 22 3 30 4 8 1 15 5 15 10 0 5 5 6 10 3 6 -3 10 -1
10 5 0 6 5 8 10 5 6 -3 10 -2 10 4 0 6 14 18 31 27 18 9 43 27 56 40 13 13 28
24 33 24 6 0 9 4 7 9 -1 5 10 19 24 33 14 13 24 29 21 36 -2 7 1 12 8 12 6 0
18 16 26 35 8 19 20 35 27 35 8 0 7 4 -3 10 -12 8 -12 10 -1 10 9 0 11 7 8 21
-3 12 0 22 8 25 7 3 12 18 11 35 -1 17 1 32 6 35 5 3 6 10 3 15 -4 5 -3 9 2 9
12 0 10 74 -2 82 -6 5 -5 8 3 8 9 0 10 5 4 18 -5 9 -8 32 -7 50 0 17 -2 32 -5
32 -4 0 -7 6 -8 13 -2 21 -8 40 -25 81 -9 21 -17 42 -17 46 0 4 -12 19 -26 34
-15 14 -23 26 -19 26 4 0 -11 19 -34 41 -22 23 -41 45 -41 50 0 5 -7 9 -15 9
-8 0 -15 5 -15 10 0 6 -7 10 -15 10 -8 0 -15 4 -15 9 0 10 -123 71 -155 77 -5
1 -12 3 -15 4 -3 1 -21 4 -40 7 -19 2 -41 10 -48 16 -10 8 -16 7 -22 -2 -5
-10 -9 -10 -15 -2 -5 8 -11 9 -19 2 -7 -6 -22 -9 -34 -6 -13 2 -22 -1 -23 -8
0 -7 -4 -3 -9 8 -7 15 -9 16 -9 4z"/>
</g>
</svg>
